<svg id="visual" viewBox="0 0 900 600" width="900" height="600" xmlns="http://www.w3.org/2000/svg" xmlns:xlink="http://www.w3.org/1999/xlink" version="1.1"><g stroke-width="1" stroke-linejoin="bevel"><path d="M523.3 288L440.3 405L507.3 368Z" fill="#77ad68" stroke="#8f8f8f"></path><path d="M363.7 168L380.7 416L440.3 405Z" fill="#62a252" stroke="#8f8f8f"></path><path d="M380.7 416L379.7 428L440.3 405Z" fill="#dbe4d8" stroke="#8f8f8f"></path><path d="M523.3 288L363.7 168L440.3 405Z" fill="#77ad68" stroke="#8f8f8f"></path><path d="M506.3 175L363.7 168L523.3 288Z" fill="#4b973c" stroke="#8f8f8f"></path><path d="M380.7 416L247.1 415L379.7 428Z" fill="#4b973c" stroke="#8f8f8f"></path><path d="M506.3 175L377.7 153L363.7 168Z" fill="#77ad68" stroke="#8f8f8f"></path><path d="M363.7 168L247.1 415L380.7 416Z" fill="#62a252" stroke="#8f8f8f"></path><path d="M686.9 299L646.9 234L523.3 288Z" fill="#c8d9c1" stroke="#8f8f8f"></path><path d="M523.3 288L646.9 234L506.3 175Z" fill="#efefef" stroke="#8f8f8f"></path><path d="M177.1 210L207.6 397L247.1 415Z" fill="#4b973c" stroke="#8f8f8f"></path><path d="M507.3 368L686.9 299L523.3 288Z" fill="#8cb87e" stroke="#8f8f8f"></path><path d="M716.9 544L686.9 299L507.3 368Z" fill="#008000" stroke="#8f8f8f"></path><path d="M273.1 52L177.1 210L363.7 168Z" fill="#77ad68" stroke="#8f8f8f"></path><path d="M363.7 168L177.1 210L247.1 415Z" fill="#a0c394" stroke="#8f8f8f"></path><path d="M686.9 299L721.4 276L646.9 234Z" fill="#b4ceaa" stroke="#8f8f8f"></path><path d="M161.6 472L234.1 525L247.1 415Z" fill="#b4ceaa" stroke="#8f8f8f"></path><path d="M247.1 415L234.1 525L379.7 428Z" fill="#c8d9c1" stroke="#8f8f8f"></path><path d="M379.7 428L479.3 600L440.3 405Z" fill="#4b973c" stroke="#8f8f8f"></path><path d="M440.3 405L479.3 600L507.3 368Z" fill="#dbe4d8" stroke="#8f8f8f"></path><path d="M378.7 600L479.3 600L379.7 428Z" fill="#efefef" stroke="#8f8f8f"></path><path d="M686.9 299L850.4 402L721.4 276Z" fill="#a0c394" stroke="#8f8f8f"></path><path d="M292.1 600L378.7 600L379.7 428Z" fill="#dbe4d8" stroke="#8f8f8f"></path><path d="M299.1 0L273.1 52L377.7 153Z" fill="#77ad68" stroke="#8f8f8f"></path><path d="M377.7 153L273.1 52L363.7 168Z" fill="#efefef" stroke="#8f8f8f"></path><path d="M471.7 0L377.7 153L506.3 175Z" fill="#4b973c" stroke="#8f8f8f"></path><path d="M489.3 0L471.7 0L506.3 175Z" fill="#62a252" stroke="#8f8f8f"></path><path d="M489.3 0L506.3 175L591.9 0Z" fill="#4b973c" stroke="#8f8f8f"></path><path d="M207.6 397L161.6 472L247.1 415Z" fill="#77ad68" stroke="#8f8f8f"></path><path d="M0 321L161.6 472L207.6 397Z" fill="#77ad68" stroke="#8f8f8f"></path><path d="M591.9 0L506.3 175L646.9 234Z" fill="#62a252" stroke="#8f8f8f"></path><path d="M234.1 525L292.1 600L379.7 428Z" fill="#318b24" stroke="#8f8f8f"></path><path d="M101.6 600L292.1 600L234.1 525Z" fill="#4b973c" stroke="#8f8f8f"></path><path d="M471.7 0L299.1 0L377.7 153Z" fill="#62a252" stroke="#8f8f8f"></path><path d="M195.6 45L116.6 166L177.1 210Z" fill="#b4ceaa" stroke="#8f8f8f"></path><path d="M195.6 45L177.1 210L273.1 52Z" fill="#c8d9c1" stroke="#8f8f8f"></path><path d="M177.1 210L0 321L207.6 397Z" fill="#008000" stroke="#8f8f8f"></path><path d="M719.9 40L591.9 0L646.9 234Z" fill="#8cb87e" stroke="#8f8f8f"></path><path d="M479.3 600L633.9 600L507.3 368Z" fill="#8cb87e" stroke="#8f8f8f"></path><path d="M299.1 0L195.6 45L273.1 52Z" fill="#318b24" stroke="#8f8f8f"></path><path d="M633.9 600L716.9 544L507.3 368Z" fill="#a0c394" stroke="#8f8f8f"></path><path d="M800.4 77L719.9 40L646.9 234Z" fill="#8cb87e" stroke="#8f8f8f"></path><path d="M719.9 40L695.4 0L591.9 0Z" fill="#dbe4d8" stroke="#8f8f8f"></path><path d="M716.9 544L850.4 402L686.9 299Z" fill="#8cb87e" stroke="#8f8f8f"></path><path d="M721.4 276L800.4 77L646.9 234Z" fill="#62a252" stroke="#8f8f8f"></path><path d="M116.6 166L0 321L177.1 210Z" fill="#62a252" stroke="#8f8f8f"></path><path d="M161.6 472L101.6 600L234.1 525Z" fill="#008000" stroke="#8f8f8f"></path><path d="M0 206L0 321L116.6 166Z" fill="#efefef" stroke="#8f8f8f"></path><path d="M856.4 200L800.4 77L721.4 276Z" fill="#318b24" stroke="#8f8f8f"></path><path d="M719.9 40L900 0L695.4 0Z" fill="#8cb87e" stroke="#8f8f8f"></path><path d="M633.9 600L760.4 600L716.9 544Z" fill="#a0c394" stroke="#8f8f8f"></path><path d="M716.9 544L900 557L850.4 402Z" fill="#dbe4d8" stroke="#8f8f8f"></path><path d="M900 316L856.4 200L721.4 276Z" fill="#c8d9c1" stroke="#8f8f8f"></path><path d="M0 496L101.6 600L161.6 472Z" fill="#c8d9c1" stroke="#8f8f8f"></path><path d="M0 162L0 206L116.6 166Z" fill="#008000" stroke="#8f8f8f"></path><path d="M299.1 0L109.6 0L195.6 45Z" fill="#8cb87e" stroke="#8f8f8f"></path><path d="M195.6 45L109.6 0L116.6 166Z" fill="#efefef" stroke="#8f8f8f"></path><path d="M109.6 0L0 162L116.6 166Z" fill="#dbe4d8" stroke="#8f8f8f"></path><path d="M900 375L900 316L850.4 402Z" fill="#a0c394" stroke="#8f8f8f"></path><path d="M850.4 402L900 316L721.4 276Z" fill="#4b973c" stroke="#8f8f8f"></path><path d="M0 321L0 496L161.6 472Z" fill="#62a252" stroke="#8f8f8f"></path><path d="M900 557L900 375L850.4 402Z" fill="#b4ceaa" stroke="#8f8f8f"></path><path d="M0 496L0 600L101.6 600Z" fill="#62a252" stroke="#8f8f8f"></path><path d="M760.4 600L900 557L716.9 544Z" fill="#efefef" stroke="#8f8f8f"></path><path d="M109.6 0L0 0L0 162Z" fill="#c8d9c1" stroke="#8f8f8f"></path><path d="M856.4 200L900 30L800.4 77Z" fill="#4b973c" stroke="#8f8f8f"></path><path d="M800.4 77L900 0L719.9 40Z" fill="#8cb87e" stroke="#8f8f8f"></path><path d="M900 316L900 30L856.4 200Z" fill="#4b973c" stroke="#8f8f8f"></path><path d="M760.4 600L900 600L900 557Z" fill="#4b973c" stroke="#8f8f8f"></path><path d="M900 30L900 0L800.4 77Z" fill="#008000" stroke="#8f8f8f"></path></g></svg>