<svg xmlns="http://www.w3.org/2000/svg" xmlns:xlink="http://www.w3.org/1999/xlink" width="500" zoomAndPan="magnify" viewBox="0 0 375 374.999991" height="500" preserveAspectRatio="xMidYMid meet" version="1.0"><defs><clipPath id="73edf30f9e"><path d="M 11.785156 95 L 107 95 L 107 191 L 11.785156 191 Z M 11.785156 95 " clip-rule="nonzero"/></clipPath><clipPath id="a743f1ef1b"><path d="M 95 11.785156 L 191 11.785156 L 191 107 L 95 107 Z M 95 11.785156 " clip-rule="nonzero"/></clipPath><clipPath id="67298d6169"><path d="M 11.785156 11.785156 L 107 11.785156 L 107 107 L 11.785156 107 Z M 11.785156 11.785156 " clip-rule="nonzero"/></clipPath><clipPath id="0c7bae9e34"><path d="M 268 95 L 363.535156 95 L 363.535156 191 L 268 191 Z M 268 95 " clip-rule="nonzero"/></clipPath><clipPath id="3906b819fc"><path d="M 184 11.785156 L 280 11.785156 L 280 107 L 184 107 Z M 184 11.785156 " clip-rule="nonzero"/></clipPath><clipPath id="5daa89db6c"><path d="M 268 11.785156 L 363.535156 11.785156 L 363.535156 107 L 268 107 Z M 268 11.785156 " clip-rule="nonzero"/></clipPath><clipPath id="535e539d73"><path d="M 11.785156 184 L 107 184 L 107 280 L 11.785156 280 Z M 11.785156 184 " clip-rule="nonzero"/></clipPath><clipPath id="85d35cb5b2"><path d="M 95 268 L 191 268 L 191 363.535156 L 95 363.535156 Z M 95 268 " clip-rule="nonzero"/></clipPath><clipPath id="aae4323a89"><path d="M 11.785156 268 L 107 268 L 107 363.535156 L 11.785156 363.535156 Z M 11.785156 268 " clip-rule="nonzero"/></clipPath><clipPath id="4169b62d31"><path d="M 268 184 L 363.535156 184 L 363.535156 280 L 268 280 Z M 268 184 " clip-rule="nonzero"/></clipPath><clipPath id="4a1eac8061"><path d="M 184 268 L 280 268 L 280 363.535156 L 184 363.535156 Z M 184 268 " clip-rule="nonzero"/></clipPath><clipPath id="feef6b27f1"><path d="M 268 268 L 363.535156 268 L 363.535156 363.535156 L 268 363.535156 Z M 268 268 " clip-rule="nonzero"/></clipPath></defs><rect x="-37.5" width="450" fill="#ffffff" y="-37.499999" height="449.999989" fill-opacity="1"/><rect x="-37.5" width="450" fill="#000000" y="-37.499999" height="449.999989" fill-opacity="1"/><g clip-path="url(#73edf30f9e)"><path fill="#ffffff" d="M 31.523438 106.835938 C 27.660156 112.820312 24.542969 119.324219 22.316406 126.214844 C 19.71875 134.246094 18.316406 142.835938 18.316406 151.773438 C 18.316406 156.886719 18.765625 161.84375 19.625 166.609375 C 20.421875 171.035156 21.574219 175.339844 23.046875 179.496094 C 27.207031 180.972656 31.511719 182.121094 35.933594 182.921875 C 40.703125 183.78125 45.660156 184.230469 50.769531 184.230469 C 59.710938 184.230469 68.296875 182.828125 76.328125 180.230469 C 83.222656 178 89.726562 174.886719 95.710938 171.019531 C 90.082031 166.488281 85.007812 161.285156 80.613281 155.527344 C 75.648438 149.023438 71.550781 141.808594 68.492188 134.050781 C 60.738281 130.996094 53.519531 126.898438 47.015625 121.933594 C 41.261719 117.539062 36.058594 112.464844 31.523438 106.835938 Z M 16.117188 124.226562 C 19.027344 115.21875 23.320312 106.84375 28.738281 99.359375 L 31.378906 95.710938 L 34.019531 99.359375 C 38.796875 105.957031 44.511719 111.820312 50.972656 116.753906 C 57.375 121.640625 64.5 125.617188 72.148438 128.484375 L 73.539062 129.007812 L 74.0625 130.398438 C 76.925781 138.046875 80.902344 145.171875 85.792969 151.574219 C 90.722656 158.03125 96.589844 163.75 103.1875 168.523438 L 106.835938 171.164062 L 103.1875 173.804688 C 95.699219 179.226562 87.328125 183.515625 78.320312 186.429688 C 69.621094 189.242188 60.363281 190.761719 50.769531 190.761719 C 45.363281 190.761719 40.019531 190.269531 34.789062 189.324219 C 29.464844 188.363281 24.3125 186.9375 19.375 185.085938 L 17.984375 184.5625 L 17.460938 183.171875 C 15.609375 178.230469 14.179688 173.078125 13.222656 167.757812 C 12.277344 162.527344 11.785156 157.183594 11.785156 151.773438 C 11.785156 142.183594 13.304688 132.925781 16.117188 124.226562 Z M 16.117188 124.226562 " fill-opacity="1" fill-rule="nonzero"/></g><path fill="#ffffff" d="M 134.050781 134.050781 C 130.996094 141.808594 126.898438 149.023438 121.933594 155.527344 C 117.539062 161.285156 112.464844 166.488281 106.835938 171.019531 C 112.820312 174.886719 119.324219 178 126.21875 180.230469 C 134.25 182.824219 142.835938 184.230469 151.773438 184.230469 C 156.886719 184.230469 161.84375 183.78125 166.609375 182.921875 C 171.035156 182.121094 175.339844 180.972656 179.496094 179.496094 C 180.972656 175.339844 182.121094 171.035156 182.921875 166.609375 C 183.78125 161.84375 184.230469 156.886719 184.230469 151.773438 C 184.230469 142.835938 182.824219 134.246094 180.230469 126.214844 C 178 119.324219 174.886719 112.820312 171.019531 106.832031 C 166.488281 112.464844 161.285156 117.539062 155.527344 121.933594 C 149.023438 126.898438 141.808594 130.996094 134.050781 134.050781 Z M 116.753906 151.574219 C 121.644531 145.167969 125.617188 138.046875 128.484375 130.398438 L 129.007812 129.007812 L 130.398438 128.484375 C 138.046875 125.617188 145.167969 121.640625 151.574219 116.753906 C 158.03125 111.820312 163.75 105.957031 168.523438 99.359375 L 171.164062 95.710938 L 173.804688 99.359375 C 179.226562 106.84375 183.515625 115.21875 186.429688 124.226562 C 189.242188 132.925781 190.761719 142.183594 190.761719 151.773438 C 190.761719 157.183594 190.269531 162.527344 189.324219 167.757812 C 188.363281 173.078125 186.9375 178.230469 185.085938 183.171875 L 184.5625 184.5625 L 183.171875 185.085938 C 178.230469 186.9375 173.078125 188.363281 167.757812 189.324219 C 162.527344 190.269531 157.183594 190.761719 151.773438 190.761719 C 142.183594 190.761719 132.925781 189.242188 124.226562 186.429688 C 115.21875 183.515625 106.84375 179.226562 99.359375 173.804688 L 95.710938 171.164062 L 99.359375 168.523438 C 105.957031 163.75 111.820312 158.03125 116.753906 151.574219 Z M 116.753906 151.574219 " fill-opacity="1" fill-rule="nonzero"/><g clip-path="url(#a743f1ef1b)"><path fill="#ffffff" d="M 134.050781 68.492188 C 141.808594 71.546875 149.023438 75.648438 155.527344 80.613281 C 161.285156 85.007812 166.488281 90.082031 171.019531 95.710938 C 174.886719 89.726562 178 83.21875 180.230469 76.328125 C 182.824219 68.296875 184.230469 59.707031 184.230469 50.769531 C 184.230469 45.660156 183.78125 40.703125 182.921875 35.933594 C 182.121094 31.511719 180.972656 27.207031 179.496094 23.046875 C 175.339844 21.574219 171.035156 20.421875 166.609375 19.625 C 161.84375 18.765625 156.886719 18.316406 151.773438 18.316406 C 142.835938 18.316406 134.246094 19.71875 126.21875 22.316406 C 119.324219 24.542969 112.820312 27.660156 106.835938 31.523438 C 112.464844 36.058594 117.539062 41.261719 121.933594 47.015625 C 126.898438 53.519531 130.996094 60.738281 134.050781 68.492188 Z M 151.574219 85.792969 C 145.171875 80.902344 138.046875 76.925781 130.398438 74.058594 L 129.007812 73.539062 L 128.484375 72.148438 C 125.617188 64.5 121.640625 57.375 116.753906 50.972656 C 111.820312 44.511719 105.957031 38.796875 99.359375 34.019531 L 95.710938 31.378906 L 99.359375 28.738281 C 106.847656 23.320312 115.21875 19.027344 124.226562 16.117188 C 132.925781 13.304688 142.183594 11.785156 151.773438 11.785156 C 157.183594 11.785156 162.527344 12.277344 167.757812 13.222656 C 173.078125 14.179688 178.230469 15.609375 183.171875 17.460938 L 184.5625 17.984375 L 185.085938 19.375 C 186.9375 24.3125 188.363281 29.464844 189.324219 34.785156 C 190.269531 40.019531 190.761719 45.363281 190.761719 50.769531 C 190.761719 60.363281 189.242188 69.621094 186.429688 78.316406 C 183.515625 87.324219 179.226562 95.699219 173.804688 103.1875 L 171.164062 106.835938 L 168.523438 103.1875 C 163.75 96.589844 158.03125 90.722656 151.574219 85.792969 Z M 151.574219 85.792969 " fill-opacity="1" fill-rule="nonzero"/></g><g clip-path="url(#67298d6169)"><path fill="#ffffff" d="M 68.496094 68.492188 C 71.550781 60.738281 75.648438 53.519531 80.613281 47.015625 C 85.007812 41.261719 90.082031 36.058594 95.710938 31.523438 C 89.726562 27.660156 83.222656 24.542969 76.328125 22.316406 C 68.296875 19.71875 59.707031 18.316406 50.769531 18.316406 C 45.660156 18.316406 40.703125 18.765625 35.933594 19.625 C 31.511719 20.421875 27.207031 21.574219 23.046875 23.046875 C 21.574219 27.207031 20.421875 31.511719 19.625 35.933594 C 18.765625 40.703125 18.316406 45.660156 18.316406 50.769531 C 18.316406 59.707031 19.71875 68.296875 22.316406 76.328125 C 24.542969 83.21875 27.660156 89.726562 31.523438 95.710938 C 36.058594 90.082031 41.261719 85.007812 47.015625 80.613281 C 53.519531 75.644531 60.738281 71.546875 68.496094 68.492188 Z M 85.792969 50.972656 C 80.902344 57.375 76.929688 64.5 74.0625 72.148438 L 73.539062 73.539062 L 72.148438 74.058594 C 64.5 76.925781 57.375 80.902344 50.972656 85.792969 C 44.511719 90.722656 38.796875 96.589844 34.019531 103.1875 L 31.378906 106.835938 L 28.738281 103.1875 C 23.320312 95.699219 19.027344 87.328125 16.117188 78.316406 C 13.304688 69.621094 11.785156 60.363281 11.785156 50.769531 C 11.785156 45.363281 12.277344 40.019531 13.222656 34.785156 C 14.179688 29.464844 15.609375 24.3125 17.460938 19.375 L 17.980469 17.984375 L 19.375 17.460938 C 24.3125 15.609375 29.464844 14.179688 34.785156 13.222656 C 40.019531 12.277344 45.363281 11.785156 50.769531 11.785156 C 60.363281 11.785156 69.621094 13.304688 78.320312 16.117188 C 87.328125 19.027344 95.699219 23.320312 103.1875 28.738281 L 106.835938 31.378906 L 103.1875 34.019531 C 96.589844 38.796875 90.722656 44.511719 85.792969 50.972656 Z M 85.792969 50.972656 " fill-opacity="1" fill-rule="nonzero"/></g><path fill="#ffffff" d="M 101.273438 68.816406 C 96.160156 68.816406 91.203125 69.265625 86.4375 70.125 C 82.015625 70.925781 77.707031 72.074219 73.550781 73.550781 C 72.078125 77.707031 70.925781 82.011719 70.128906 86.4375 C 69.265625 91.203125 68.816406 96.160156 68.816406 101.273438 C 68.816406 106.382812 69.265625 111.339844 70.128906 116.109375 C 70.925781 120.53125 72.074219 124.839844 73.550781 128.996094 C 77.707031 130.46875 82.011719 131.621094 86.4375 132.417969 C 91.203125 133.277344 96.160156 133.726562 101.273438 133.726562 C 106.382812 133.726562 111.339844 133.277344 116.109375 132.417969 C 120.53125 131.621094 124.839844 130.46875 128.996094 128.996094 C 130.46875 124.839844 131.621094 120.53125 132.417969 116.109375 C 133.277344 111.339844 133.726562 106.382812 133.726562 101.273438 C 133.726562 96.160156 133.277344 91.203125 132.417969 86.4375 C 131.621094 82.011719 130.46875 77.707031 128.996094 73.550781 C 124.839844 72.074219 120.53125 70.925781 116.109375 70.125 C 111.339844 69.265625 106.382812 68.816406 101.273438 68.816406 Z M 85.289062 63.722656 C 90.523438 62.777344 95.863281 62.285156 101.273438 62.285156 C 106.679688 62.285156 112.023438 62.777344 117.257812 63.722656 C 122.578125 64.683594 127.730469 66.109375 132.667969 67.960938 L 134.0625 68.484375 L 134.582031 69.875 C 136.433594 74.816406 137.863281 79.96875 138.824219 85.289062 C 139.765625 90.519531 140.257812 95.863281 140.257812 101.273438 C 140.257812 106.679688 139.765625 112.023438 138.824219 117.257812 C 137.863281 122.578125 136.433594 127.730469 134.582031 132.667969 L 134.0625 134.058594 L 132.667969 134.582031 C 127.730469 136.433594 122.578125 137.863281 117.257812 138.820312 C 112.023438 139.765625 106.679688 140.257812 101.273438 140.257812 C 95.863281 140.257812 90.519531 139.765625 85.289062 138.820312 C 79.96875 137.863281 74.816406 136.433594 69.875 134.582031 L 68.484375 134.0625 L 67.960938 132.667969 C 66.109375 127.730469 64.683594 122.578125 63.722656 117.257812 C 62.777344 112.023438 62.285156 106.679688 62.285156 101.273438 C 62.285156 95.863281 62.777344 90.519531 63.722656 85.289062 C 64.683594 79.96875 66.113281 74.816406 67.960938 69.875 L 68.484375 68.484375 L 69.875 67.960938 C 74.816406 66.109375 79.96875 64.683594 85.289062 63.722656 Z M 85.289062 63.722656 " fill-opacity="1" fill-rule="nonzero"/><g clip-path="url(#0c7bae9e34)"><path fill="#ffffff" d="M 346.25 99.359375 C 351.671875 106.84375 355.960938 115.21875 358.875 124.226562 C 361.6875 132.925781 363.207031 142.183594 363.207031 151.773438 C 363.207031 157.183594 362.714844 162.527344 361.769531 167.757812 C 360.808594 173.078125 359.382812 178.230469 357.53125 183.171875 L 357.007812 184.5625 L 355.617188 185.085938 C 350.675781 186.9375 345.523438 188.363281 340.203125 189.324219 C 334.972656 190.269531 329.628906 190.761719 324.21875 190.761719 C 314.628906 190.761719 305.367188 189.242188 296.671875 186.429688 C 287.664062 183.515625 279.289062 179.226562 271.804688 173.804688 L 268.15625 171.164062 L 271.804688 168.523438 C 278.402344 163.75 284.265625 158.03125 289.199219 151.574219 C 294.085938 145.171875 298.0625 138.046875 300.929688 130.398438 L 301.453125 129.007812 L 302.84375 128.484375 C 310.492188 125.617188 317.613281 121.640625 324.019531 116.753906 C 330.476562 111.820312 336.195312 105.957031 340.96875 99.359375 L 343.609375 95.710938 Z M 352.675781 126.214844 C 350.445312 119.324219 347.332031 112.820312 343.464844 106.835938 C 338.933594 112.464844 333.730469 117.539062 327.972656 121.933594 C 321.46875 126.898438 314.253906 130.996094 306.496094 134.050781 C 303.441406 141.808594 299.34375 149.023438 294.378906 155.527344 C 289.984375 161.285156 284.910156 166.488281 279.277344 171.019531 C 285.265625 174.886719 291.769531 178 298.660156 180.230469 C 306.691406 182.824219 315.28125 184.230469 324.21875 184.230469 C 329.332031 184.230469 334.289062 183.78125 339.054688 182.917969 C 343.480469 182.121094 347.785156 180.972656 351.941406 179.496094 C 353.417969 175.339844 354.566406 171.035156 355.363281 166.609375 C 356.226562 161.84375 356.675781 156.886719 356.675781 151.773438 C 356.675781 142.835938 355.269531 134.246094 352.675781 126.214844 Z M 352.675781 126.214844 " fill-opacity="1" fill-rule="nonzero"/></g><path fill="#ffffff" d="M 246.503906 130.398438 C 249.371094 138.046875 253.347656 145.167969 258.238281 151.574219 C 263.167969 158.03125 269.035156 163.75 275.632812 168.523438 L 279.277344 171.164062 L 275.632812 173.804688 C 268.144531 179.226562 259.769531 183.515625 250.761719 186.429688 C 242.066406 189.242188 232.808594 190.761719 223.214844 190.761719 C 217.808594 190.761719 212.464844 190.269531 207.230469 189.324219 C 201.910156 188.363281 196.757812 186.9375 191.820312 185.085938 L 190.425781 184.5625 L 189.90625 183.171875 C 188.054688 178.230469 186.625 173.078125 185.667969 167.757812 C 184.722656 162.527344 184.230469 157.183594 184.230469 151.773438 C 184.230469 142.183594 185.75 132.925781 188.5625 124.226562 C 191.472656 115.21875 195.765625 106.84375 201.183594 99.359375 L 203.824219 95.710938 L 206.464844 99.359375 C 211.242188 105.957031 216.957031 111.820312 223.417969 116.753906 C 229.820312 121.640625 236.945312 125.617188 244.59375 128.484375 L 245.984375 129.003906 Z M 253.058594 155.527344 C 248.089844 149.023438 243.992188 141.808594 240.9375 134.050781 C 233.183594 130.996094 225.964844 126.898438 219.460938 121.933594 C 213.707031 117.539062 208.503906 112.464844 203.96875 106.832031 C 200.105469 112.820312 196.988281 119.324219 194.761719 126.214844 C 192.164062 134.246094 190.761719 142.835938 190.761719 151.773438 C 190.761719 156.886719 191.210938 161.84375 192.070312 166.609375 C 192.867188 171.035156 194.019531 175.339844 195.492188 179.496094 C 199.652344 180.972656 203.957031 182.121094 208.378906 182.917969 C 213.148438 183.78125 218.105469 184.230469 223.214844 184.230469 C 232.152344 184.230469 240.742188 182.824219 248.773438 180.230469 C 255.664062 178 262.171875 174.886719 268.15625 171.019531 C 262.523438 166.488281 257.453125 161.285156 253.058594 155.527344 Z M 253.058594 155.527344 " fill-opacity="1" fill-rule="nonzero"/><g clip-path="url(#3906b819fc)"><path fill="#ffffff" d="M 244.59375 74.058594 C 236.945312 76.925781 229.820312 80.902344 223.417969 85.792969 C 216.957031 90.722656 211.242188 96.589844 206.464844 103.1875 L 203.824219 106.835938 L 201.183594 103.1875 C 195.765625 95.699219 191.472656 87.328125 188.5625 78.320312 C 185.75 69.621094 184.230469 60.363281 184.230469 50.769531 C 184.230469 45.363281 184.722656 40.019531 185.667969 34.789062 C 186.625 29.464844 188.054688 24.3125 189.90625 19.375 L 190.429688 17.984375 L 191.820312 17.460938 C 196.757812 15.609375 201.910156 14.179688 207.234375 13.222656 C 212.464844 12.277344 217.808594 11.785156 223.214844 11.785156 C 232.808594 11.785156 242.066406 13.304688 250.761719 16.117188 C 259.773438 19.027344 268.144531 23.320312 275.632812 28.738281 L 279.28125 31.378906 L 275.632812 34.019531 C 269.035156 38.796875 263.167969 44.511719 258.238281 50.972656 C 253.347656 57.375 249.371094 64.5 246.507812 72.148438 L 245.984375 73.539062 L 244.59375 74.0625 Z M 219.460938 80.613281 C 225.964844 75.648438 233.183594 71.550781 240.9375 68.492188 C 243.996094 60.738281 248.09375 53.519531 253.058594 47.015625 C 257.453125 41.261719 262.527344 36.058594 268.15625 31.523438 C 262.171875 27.660156 255.664062 24.542969 248.773438 22.316406 C 240.742188 19.71875 232.152344 18.316406 223.214844 18.316406 C 218.105469 18.316406 213.148438 18.765625 208.378906 19.625 C 203.957031 20.421875 199.652344 21.574219 195.492188 23.046875 C 194.019531 27.207031 192.867188 31.511719 192.070312 35.933594 C 191.210938 40.703125 190.761719 45.660156 190.761719 50.769531 C 190.761719 59.710938 192.164062 68.296875 194.761719 76.328125 C 196.988281 83.222656 200.105469 89.726562 203.96875 95.710938 C 208.5 90.082031 213.707031 85.007812 219.460938 80.613281 Z M 219.460938 80.613281 " fill-opacity="1" fill-rule="nonzero"/></g><g clip-path="url(#5daa89db6c)"><path fill="#ffffff" d="M 300.929688 72.148438 C 298.0625 64.5 294.085938 57.375 289.195312 50.972656 C 284.265625 44.511719 278.402344 38.796875 271.804688 34.019531 L 268.15625 31.378906 L 271.804688 28.738281 C 279.289062 23.320312 287.664062 19.027344 296.671875 16.117188 C 305.367188 13.304688 314.628906 11.785156 324.21875 11.785156 C 329.628906 11.785156 334.972656 12.277344 340.203125 13.222656 C 345.523438 14.179688 350.675781 15.609375 355.617188 17.460938 L 357.007812 17.984375 L 357.53125 19.375 C 359.382812 24.3125 360.808594 29.464844 361.769531 34.785156 C 362.714844 40.019531 363.207031 45.363281 363.207031 50.769531 C 363.207031 60.363281 361.6875 69.621094 358.875 78.316406 C 355.960938 87.324219 351.671875 95.699219 346.25 103.1875 L 343.609375 106.835938 L 340.96875 103.1875 C 336.195312 96.589844 330.476562 90.722656 324.019531 85.792969 C 317.613281 80.902344 310.492188 76.925781 302.84375 74.058594 L 301.449219 73.539062 Z M 294.378906 47.015625 C 299.34375 53.519531 303.441406 60.738281 306.496094 68.492188 C 314.253906 71.546875 321.46875 75.644531 327.972656 80.613281 C 333.730469 85.007812 338.933594 90.082031 343.464844 95.710938 C 347.332031 89.726562 350.445312 83.21875 352.675781 76.328125 C 355.269531 68.296875 356.675781 59.707031 356.675781 50.769531 C 356.675781 45.660156 356.226562 40.703125 355.363281 35.933594 C 354.566406 31.511719 353.414062 27.207031 351.941406 23.046875 C 347.785156 21.574219 343.476562 20.421875 339.054688 19.625 C 334.289062 18.765625 329.332031 18.316406 324.21875 18.316406 C 315.28125 18.316406 306.691406 19.71875 298.660156 22.316406 C 291.769531 24.542969 285.265625 27.660156 279.277344 31.523438 C 284.910156 36.058594 289.984375 41.261719 294.378906 47.015625 Z M 294.378906 47.015625 " fill-opacity="1" fill-rule="nonzero"/></g><path fill="#ffffff" d="M 273.71875 62.285156 C 279.125 62.285156 284.46875 62.777344 289.699219 63.722656 C 295.019531 64.683594 300.175781 66.109375 305.113281 67.960938 L 306.503906 68.484375 L 307.027344 69.875 C 308.878906 74.816406 310.308594 79.96875 311.265625 85.289062 C 312.210938 90.519531 312.703125 95.863281 312.703125 101.273438 C 312.703125 106.679688 312.210938 112.023438 311.265625 117.257812 C 310.308594 122.578125 308.878906 127.730469 307.027344 132.667969 L 306.503906 134.0625 L 305.113281 134.582031 C 300.175781 136.433594 295.023438 137.863281 289.703125 138.820312 C 284.46875 139.765625 279.125 140.257812 273.71875 140.257812 C 268.308594 140.257812 262.964844 139.765625 257.734375 138.820312 C 252.414062 137.863281 247.261719 136.433594 242.320312 134.582031 L 240.929688 134.0625 L 240.40625 132.667969 C 238.554688 127.730469 237.128906 122.578125 236.167969 117.257812 C 235.222656 112.023438 234.730469 106.679688 234.730469 101.273438 C 234.730469 95.863281 235.222656 90.519531 236.167969 85.289062 C 237.128906 79.96875 238.554688 74.816406 240.40625 69.875 L 240.929688 68.484375 L 242.320312 67.960938 C 247.261719 66.109375 252.414062 64.683594 257.734375 63.722656 C 262.964844 62.777344 268.308594 62.285156 273.71875 62.285156 Z M 288.550781 70.125 C 283.785156 69.265625 278.828125 68.816406 273.71875 68.816406 C 268.605469 68.816406 263.648438 69.265625 258.882812 70.125 C 254.457031 70.925781 250.152344 72.074219 245.996094 73.550781 C 244.519531 77.707031 243.371094 82.011719 242.570312 86.4375 C 241.710938 91.203125 241.261719 96.160156 241.261719 101.273438 C 241.261719 106.382812 241.710938 111.339844 242.570312 116.109375 C 243.371094 120.53125 244.519531 124.839844 245.996094 128.996094 C 250.152344 130.46875 254.457031 131.621094 258.882812 132.417969 C 263.648438 133.277344 268.605469 133.726562 273.71875 133.726562 C 278.828125 133.726562 283.785156 133.277344 288.554688 132.417969 C 292.976562 131.621094 297.285156 130.46875 301.441406 128.996094 C 302.914062 124.835938 304.066406 120.53125 304.863281 116.109375 C 305.722656 111.339844 306.171875 106.382812 306.171875 101.273438 C 306.171875 96.160156 305.722656 91.203125 304.863281 86.4375 C 304.066406 82.011719 302.914062 77.707031 301.441406 73.550781 C 297.28125 72.074219 292.976562 70.925781 288.550781 70.125 Z M 288.550781 70.125 " fill-opacity="1" fill-rule="nonzero"/><g clip-path="url(#535e539d73)"><path fill="#ffffff" d="M 28.738281 275.632812 C 23.320312 268.144531 19.027344 259.773438 16.117188 250.765625 C 13.304688 242.066406 11.785156 232.808594 11.785156 223.214844 C 11.785156 217.808594 12.277344 212.464844 13.222656 207.234375 C 14.179688 201.910156 15.609375 196.757812 17.460938 191.820312 L 17.984375 190.425781 L 19.375 189.90625 C 24.3125 188.054688 29.464844 186.625 34.789062 185.667969 C 40.019531 184.722656 45.363281 184.230469 50.769531 184.230469 C 60.363281 184.230469 69.621094 185.75 78.320312 188.5625 C 87.328125 191.472656 95.699219 195.765625 103.1875 201.183594 L 106.835938 203.824219 L 103.1875 206.464844 C 96.589844 211.242188 90.722656 216.957031 85.792969 223.417969 C 80.902344 229.820312 76.925781 236.945312 74.0625 244.59375 L 73.539062 245.984375 L 72.148438 246.503906 C 64.5 249.371094 57.375 253.347656 50.972656 258.238281 C 44.511719 263.167969 38.796875 269.035156 34.019531 275.632812 L 31.378906 279.28125 Z M 22.316406 248.773438 C 24.542969 255.667969 27.660156 262.171875 31.523438 268.15625 C 36.058594 262.527344 41.261719 257.453125 47.015625 253.058594 C 53.519531 248.09375 60.738281 243.996094 68.492188 240.9375 C 71.550781 233.183594 75.648438 225.964844 80.613281 219.460938 C 85.007812 213.707031 90.082031 208.503906 95.710938 203.96875 C 89.726562 200.105469 83.222656 196.988281 76.328125 194.761719 C 68.296875 192.164062 59.710938 190.761719 50.769531 190.761719 C 45.660156 190.761719 40.703125 191.210938 35.933594 192.070312 C 31.511719 192.867188 27.207031 194.019531 23.046875 195.492188 C 21.574219 199.652344 20.421875 203.957031 19.625 208.378906 C 18.765625 213.148438 18.316406 218.105469 18.316406 223.214844 C 18.316406 232.15625 19.71875 240.742188 22.316406 248.773438 Z M 22.316406 248.773438 " fill-opacity="1" fill-rule="nonzero"/></g><path fill="#ffffff" d="M 128.484375 244.59375 C 125.617188 236.945312 121.644531 229.820312 116.753906 223.417969 C 111.820312 216.957031 105.957031 211.242188 99.359375 206.464844 L 95.710938 203.824219 L 99.359375 201.183594 C 106.84375 195.765625 115.21875 191.472656 124.226562 188.5625 C 132.925781 185.75 142.183594 184.230469 151.773438 184.230469 C 157.183594 184.230469 162.527344 184.722656 167.757812 185.667969 C 173.078125 186.625 178.230469 188.054688 183.171875 189.90625 L 184.5625 190.429688 L 185.085938 191.820312 C 186.9375 196.757812 188.363281 201.910156 189.324219 207.230469 C 190.269531 212.464844 190.761719 217.808594 190.761719 223.214844 C 190.761719 232.808594 189.242188 242.066406 186.429688 250.765625 C 183.515625 259.773438 179.226562 268.144531 173.804688 275.632812 L 171.164062 279.28125 L 168.523438 275.632812 C 163.75 269.035156 158.03125 263.167969 151.574219 258.238281 C 145.171875 253.347656 138.046875 249.375 130.398438 246.507812 L 129.007812 245.984375 Z M 121.933594 219.460938 C 126.898438 225.964844 130.996094 233.183594 134.050781 240.941406 C 141.808594 243.996094 149.023438 248.09375 155.527344 253.058594 C 161.285156 257.453125 166.488281 262.527344 171.019531 268.15625 C 174.886719 262.171875 178 255.667969 180.230469 248.773438 C 182.824219 240.742188 184.230469 232.152344 184.230469 223.214844 C 184.230469 218.105469 183.78125 213.148438 182.921875 208.378906 C 182.121094 203.957031 180.972656 199.652344 179.496094 195.492188 C 175.339844 194.019531 171.035156 192.867188 166.609375 192.070312 C 161.84375 191.210938 156.886719 190.761719 151.773438 190.761719 C 142.835938 190.761719 134.246094 192.164062 126.21875 194.761719 C 119.324219 196.988281 112.820312 200.105469 106.835938 203.96875 C 112.464844 208.503906 117.539062 213.707031 121.933594 219.460938 Z M 121.933594 219.460938 " fill-opacity="1" fill-rule="nonzero"/><g clip-path="url(#85d35cb5b2)"><path fill="#ffffff" d="M 130.398438 300.929688 C 138.046875 298.0625 145.171875 294.085938 151.574219 289.199219 C 158.03125 284.265625 163.75 278.402344 168.523438 271.804688 L 171.164062 268.15625 L 173.804688 271.804688 C 179.226562 279.289062 183.515625 287.664062 186.429688 296.671875 C 189.242188 305.371094 190.761719 314.628906 190.761719 324.21875 C 190.761719 329.628906 190.269531 334.972656 189.324219 340.203125 C 188.363281 345.523438 186.9375 350.675781 185.085938 355.617188 L 184.5625 357.007812 L 183.171875 357.53125 C 178.230469 359.382812 173.078125 360.808594 167.757812 361.769531 C 162.527344 362.714844 157.183594 363.207031 151.773438 363.207031 C 142.183594 363.207031 132.925781 361.6875 124.226562 358.875 C 115.21875 355.960938 106.84375 351.671875 99.359375 346.25 L 95.710938 343.609375 L 99.359375 340.96875 C 105.957031 336.195312 111.820312 330.476562 116.753906 324.019531 C 121.640625 317.613281 125.617188 310.492188 128.484375 302.84375 L 129.007812 301.453125 Z M 155.527344 294.378906 C 149.023438 299.34375 141.808594 303.441406 134.050781 306.496094 C 130.996094 314.253906 126.898438 321.46875 121.933594 327.972656 C 117.539062 333.730469 112.464844 338.933594 106.835938 343.464844 C 112.820312 347.332031 119.324219 350.445312 126.21875 352.675781 C 134.25 355.269531 142.835938 356.675781 151.773438 356.675781 C 156.886719 356.675781 161.84375 356.226562 166.609375 355.363281 C 171.035156 354.566406 175.339844 353.414062 179.496094 351.941406 C 180.972656 347.785156 182.121094 343.480469 182.921875 339.054688 C 183.78125 334.289062 184.230469 329.332031 184.230469 324.21875 C 184.230469 315.28125 182.824219 306.691406 180.230469 298.660156 C 178 291.769531 174.886719 285.265625 171.019531 279.28125 C 166.488281 284.910156 161.285156 289.984375 155.527344 294.378906 Z M 155.527344 294.378906 " fill-opacity="1" fill-rule="nonzero"/></g><g clip-path="url(#aae4323a89)"><path fill="#ffffff" d="M 74.0625 302.84375 C 76.929688 310.492188 80.902344 317.617188 85.792969 324.019531 C 90.722656 330.476562 96.589844 336.195312 103.1875 340.96875 L 106.835938 343.609375 L 103.1875 346.25 C 95.699219 351.667969 87.328125 355.960938 78.320312 358.875 C 69.621094 361.6875 60.363281 363.207031 50.769531 363.207031 C 45.363281 363.207031 40.019531 362.714844 34.785156 361.769531 C 29.464844 360.808594 24.3125 359.382812 19.375 357.53125 L 17.984375 357.007812 L 17.460938 355.617188 C 15.609375 350.675781 14.179688 345.523438 13.222656 340.203125 C 12.277344 334.972656 11.785156 329.628906 11.785156 324.21875 C 11.785156 314.628906 13.304688 305.371094 16.117188 296.671875 C 19.027344 287.664062 23.320312 279.289062 28.738281 271.804688 L 31.378906 268.15625 L 34.019531 271.804688 C 38.796875 278.402344 44.511719 284.265625 50.972656 289.199219 C 57.375 294.085938 64.5 298.0625 72.148438 300.929688 L 73.539062 301.453125 Z M 80.613281 327.972656 C 75.648438 321.46875 71.550781 314.253906 68.496094 306.496094 C 60.738281 303.441406 53.519531 299.34375 47.015625 294.378906 C 41.261719 289.984375 36.058594 284.910156 31.523438 279.277344 C 27.660156 285.265625 24.542969 291.769531 22.316406 298.664062 C 19.71875 306.691406 18.316406 315.28125 18.316406 324.21875 C 18.316406 329.332031 18.765625 334.289062 19.625 339.054688 C 20.421875 343.480469 21.574219 347.785156 23.046875 351.941406 C 27.207031 353.417969 31.511719 354.566406 35.933594 355.363281 C 40.703125 356.226562 45.660156 356.675781 50.769531 356.675781 C 59.710938 356.675781 68.296875 355.269531 76.328125 352.675781 C 83.222656 350.445312 89.726562 347.332031 95.710938 343.464844 C 90.082031 338.933594 85.007812 333.730469 80.613281 327.972656 Z M 80.613281 327.972656 " fill-opacity="1" fill-rule="nonzero"/></g><path fill="#ffffff" d="M 101.273438 312.703125 C 95.863281 312.703125 90.523438 312.210938 85.289062 311.269531 C 79.96875 310.308594 74.816406 308.878906 69.875 307.027344 L 68.484375 306.507812 L 67.960938 305.113281 C 66.113281 300.175781 64.683594 295.023438 63.722656 289.703125 C 62.777344 284.46875 62.285156 279.125 62.285156 273.71875 C 62.285156 268.308594 62.777344 262.96875 63.722656 257.734375 C 64.683594 252.414062 66.109375 247.261719 67.960938 242.320312 L 68.484375 240.929688 L 69.875 240.40625 C 74.816406 238.554688 79.96875 237.128906 85.289062 236.167969 C 90.519531 235.222656 95.863281 234.730469 101.273438 234.730469 C 106.679688 234.730469 112.023438 235.222656 117.257812 236.167969 C 122.578125 237.128906 127.730469 238.558594 132.667969 240.40625 L 134.0625 240.929688 L 134.582031 242.320312 C 136.433594 247.261719 137.863281 252.414062 138.824219 257.734375 C 139.765625 262.964844 140.257812 268.308594 140.257812 273.71875 C 140.257812 279.125 139.765625 284.46875 138.824219 289.703125 C 137.863281 295.023438 136.433594 300.175781 134.582031 305.113281 L 134.0625 306.507812 L 132.667969 307.027344 C 127.730469 308.878906 122.578125 310.308594 117.257812 311.269531 C 112.023438 312.210938 106.679688 312.703125 101.273438 312.703125 Z M 86.4375 304.863281 C 91.203125 305.722656 96.160156 306.171875 101.273438 306.171875 C 106.382812 306.171875 111.339844 305.722656 116.109375 304.863281 C 120.53125 304.066406 124.839844 302.914062 128.996094 301.441406 C 130.46875 297.285156 131.621094 292.976562 132.417969 288.554688 C 133.277344 283.785156 133.726562 278.828125 133.726562 273.71875 C 133.726562 268.605469 133.277344 263.648438 132.417969 258.882812 C 131.621094 254.457031 130.46875 250.152344 128.996094 245.996094 C 124.839844 244.519531 120.53125 243.371094 116.109375 242.574219 C 111.339844 241.710938 106.382812 241.261719 101.273438 241.261719 C 96.160156 241.261719 91.203125 241.710938 86.4375 242.574219 C 82.011719 243.371094 77.707031 244.523438 73.550781 245.996094 C 72.074219 250.152344 70.925781 254.457031 70.128906 258.882812 C 69.265625 263.648438 68.816406 268.605469 68.816406 273.71875 C 68.816406 278.828125 69.265625 283.785156 70.128906 288.554688 C 70.925781 292.976562 72.078125 297.285156 73.550781 301.441406 C 77.707031 302.914062 82.015625 304.066406 86.4375 304.863281 Z M 86.4375 304.863281 " fill-opacity="1" fill-rule="nonzero"/><g clip-path="url(#4169b62d31)"><path fill="#ffffff" d="M 343.464844 268.15625 C 347.332031 262.171875 350.445312 255.667969 352.675781 248.773438 C 355.269531 240.742188 356.675781 232.152344 356.675781 223.214844 C 356.675781 218.105469 356.226562 213.148438 355.363281 208.378906 C 354.566406 203.957031 353.417969 199.648438 351.941406 195.492188 C 347.785156 194.019531 343.480469 192.867188 339.054688 192.070312 C 334.289062 191.210938 329.332031 190.761719 324.21875 190.761719 C 315.28125 190.761719 306.691406 192.164062 298.660156 194.761719 C 291.769531 196.988281 285.265625 200.101562 279.277344 203.96875 C 284.910156 208.503906 289.984375 213.707031 294.378906 219.460938 C 299.34375 225.964844 303.441406 233.183594 306.496094 240.9375 C 314.253906 243.996094 321.46875 248.09375 327.972656 253.058594 C 333.730469 257.453125 338.933594 262.527344 343.464844 268.15625 Z M 358.875 250.765625 C 355.960938 259.773438 351.671875 268.144531 346.25 275.632812 L 343.609375 279.28125 L 340.96875 275.632812 C 336.195312 269.035156 330.476562 263.167969 324.019531 258.238281 C 317.613281 253.347656 310.492188 249.371094 302.84375 246.507812 L 301.453125 245.984375 L 300.929688 244.59375 C 298.0625 236.945312 294.085938 229.820312 289.199219 223.417969 C 284.265625 216.957031 278.402344 211.242188 271.804688 206.464844 L 268.15625 203.824219 L 271.804688 201.183594 C 279.289062 195.765625 287.664062 191.472656 296.671875 188.5625 C 305.367188 185.75 314.628906 184.230469 324.21875 184.230469 C 329.628906 184.230469 334.972656 184.722656 340.203125 185.667969 C 345.523438 186.625 350.675781 188.054688 355.617188 189.90625 L 357.007812 190.429688 L 357.53125 191.820312 C 359.382812 196.757812 360.808594 201.910156 361.769531 207.234375 C 362.714844 212.464844 363.207031 217.808594 363.207031 223.214844 C 363.207031 232.808594 361.6875 242.066406 358.875 250.765625 Z M 358.875 250.765625 " fill-opacity="1" fill-rule="nonzero"/></g><path fill="#ffffff" d="M 240.9375 240.9375 C 243.992188 233.183594 248.089844 225.964844 253.058594 219.460938 C 257.453125 213.707031 262.523438 208.503906 268.15625 203.96875 C 262.171875 200.105469 255.664062 196.988281 248.773438 194.761719 C 240.742188 192.164062 232.152344 190.761719 223.214844 190.761719 C 218.105469 190.761719 213.148438 191.210938 208.378906 192.070312 C 203.957031 192.867188 199.652344 194.019531 195.492188 195.492188 C 194.019531 199.648438 192.867188 203.957031 192.070312 208.378906 C 191.210938 213.148438 190.761719 218.105469 190.761719 223.214844 C 190.761719 232.152344 192.164062 240.742188 194.761719 248.773438 C 196.988281 255.667969 200.105469 262.171875 203.96875 268.15625 C 208.503906 262.527344 213.707031 257.453125 219.460938 253.058594 C 225.964844 248.09375 233.183594 243.996094 240.9375 240.9375 Z M 258.238281 223.417969 C 253.347656 229.820312 249.371094 236.945312 246.503906 244.59375 L 245.984375 245.984375 L 244.59375 246.507812 C 236.945312 249.375 229.820312 253.347656 223.417969 258.238281 C 216.957031 263.167969 211.242188 269.035156 206.464844 275.632812 L 203.824219 279.28125 L 201.183594 275.632812 C 195.765625 268.144531 191.472656 259.773438 188.5625 250.765625 C 185.75 242.066406 184.230469 232.808594 184.230469 223.214844 C 184.230469 217.808594 184.722656 212.464844 185.667969 207.230469 C 186.625 201.910156 188.054688 196.757812 189.90625 191.820312 L 190.429688 190.425781 L 191.820312 189.90625 C 196.757812 188.054688 201.910156 186.625 207.234375 185.664062 C 212.464844 184.722656 217.808594 184.230469 223.214844 184.230469 C 232.808594 184.230469 242.066406 185.75 250.761719 188.5625 C 259.773438 191.472656 268.144531 195.765625 275.632812 201.183594 L 279.28125 203.824219 L 275.632812 206.464844 C 269.035156 211.242188 263.167969 216.957031 258.238281 223.417969 Z M 258.238281 223.417969 " fill-opacity="1" fill-rule="nonzero"/><g clip-path="url(#4a1eac8061)"><path fill="#ffffff" d="M 240.9375 306.496094 C 233.183594 303.441406 225.964844 299.34375 219.460938 294.378906 C 213.707031 289.984375 208.5 284.910156 203.96875 279.28125 C 200.105469 285.265625 196.988281 291.769531 194.761719 298.664062 C 192.164062 306.691406 190.761719 315.28125 190.761719 324.21875 C 190.761719 329.332031 191.210938 334.289062 192.070312 339.054688 C 192.867188 343.480469 194.019531 347.785156 195.492188 351.941406 C 199.648438 353.417969 203.957031 354.566406 208.378906 355.363281 C 213.148438 356.226562 218.105469 356.675781 223.214844 356.675781 C 232.152344 356.675781 240.742188 355.269531 248.773438 352.675781 C 255.664062 350.445312 262.171875 347.332031 268.15625 343.464844 C 262.527344 338.933594 257.453125 333.730469 253.058594 327.972656 C 248.09375 321.46875 243.996094 314.253906 240.9375 306.496094 Z M 223.417969 289.199219 C 229.820312 294.085938 236.945312 298.0625 244.59375 300.929688 L 245.984375 301.453125 L 246.503906 302.84375 C 249.371094 310.492188 253.347656 317.617188 258.238281 324.019531 C 263.167969 330.476562 269.03125 336.195312 275.628906 340.96875 L 279.277344 343.609375 L 275.628906 346.25 C 268.144531 351.671875 259.769531 355.960938 250.761719 358.875 C 242.066406 361.6875 232.804688 363.207031 223.214844 363.207031 C 217.808594 363.207031 212.464844 362.714844 207.230469 361.769531 C 201.910156 360.808594 196.757812 359.382812 191.820312 357.53125 L 190.425781 357.007812 L 189.90625 355.617188 C 188.054688 350.675781 186.625 345.523438 185.667969 340.203125 C 184.722656 334.972656 184.230469 329.628906 184.230469 324.21875 C 184.230469 314.628906 185.75 305.371094 188.5625 296.671875 C 191.472656 287.664062 195.765625 279.289062 201.183594 271.804688 L 203.824219 268.15625 L 206.464844 271.804688 C 211.242188 278.402344 216.957031 284.265625 223.417969 289.199219 Z M 223.417969 289.199219 " fill-opacity="1" fill-rule="nonzero"/></g><g clip-path="url(#feef6b27f1)"><path fill="#ffffff" d="M 306.496094 306.496094 C 303.441406 314.253906 299.34375 321.46875 294.378906 327.972656 C 289.984375 333.730469 284.910156 338.933594 279.28125 343.464844 C 285.265625 347.332031 291.769531 350.445312 298.660156 352.675781 C 306.691406 355.269531 315.28125 356.675781 324.21875 356.675781 C 329.332031 356.675781 334.289062 356.226562 339.054688 355.363281 C 343.480469 354.566406 347.785156 353.417969 351.941406 351.941406 C 353.417969 347.785156 354.566406 343.480469 355.363281 339.054688 C 356.226562 334.289062 356.675781 329.332031 356.675781 324.21875 C 356.675781 315.28125 355.269531 306.691406 352.675781 298.664062 C 350.445312 291.769531 347.332031 285.265625 343.464844 279.277344 C 338.933594 284.910156 333.730469 289.984375 327.972656 294.378906 C 321.46875 299.34375 314.253906 303.441406 306.496094 306.496094 Z M 289.199219 324.019531 C 294.085938 317.617188 298.0625 310.492188 300.929688 302.84375 L 301.453125 301.453125 L 302.84375 300.929688 C 310.492188 298.0625 317.617188 294.085938 324.019531 289.199219 C 330.476562 284.265625 336.195312 278.402344 340.96875 271.804688 L 343.609375 268.15625 L 346.25 271.804688 C 351.671875 279.289062 355.960938 287.664062 358.875 296.671875 C 361.6875 305.371094 363.207031 314.628906 363.207031 324.21875 C 363.207031 329.628906 362.714844 334.972656 361.769531 340.203125 C 360.808594 345.523438 359.382812 350.675781 357.53125 355.617188 L 357.007812 357.007812 L 355.617188 357.53125 C 350.675781 359.382812 345.523438 360.808594 340.203125 361.769531 C 334.972656 362.714844 329.628906 363.207031 324.21875 363.207031 C 314.628906 363.207031 305.371094 361.6875 296.671875 358.875 C 287.664062 355.960938 279.289062 351.667969 271.804688 346.25 L 268.15625 343.609375 L 271.804688 340.96875 C 278.402344 336.195312 284.265625 330.476562 289.199219 324.019531 Z M 289.199219 324.019531 " fill-opacity="1" fill-rule="nonzero"/></g><path fill="#ffffff" d="M 273.71875 306.171875 C 278.828125 306.171875 283.785156 305.722656 288.550781 304.863281 C 292.976562 304.066406 297.28125 302.914062 301.441406 301.441406 C 302.914062 297.285156 304.066406 292.976562 304.863281 288.554688 C 305.722656 283.785156 306.171875 278.828125 306.171875 273.71875 C 306.171875 268.605469 305.722656 263.648438 304.863281 258.882812 C 304.066406 254.457031 302.914062 250.152344 301.441406 245.996094 C 297.285156 244.519531 292.976562 243.371094 288.554688 242.574219 C 283.785156 241.710938 278.828125 241.261719 273.71875 241.261719 C 268.605469 241.261719 263.648438 241.710938 258.882812 242.574219 C 254.457031 243.371094 250.152344 244.519531 245.996094 245.996094 C 244.519531 250.152344 243.371094 254.457031 242.570312 258.882812 C 241.710938 263.648438 241.261719 268.605469 241.261719 273.71875 C 241.261719 278.828125 241.710938 283.785156 242.570312 288.554688 C 243.371094 292.976562 244.519531 297.28125 245.996094 301.441406 C 250.152344 302.914062 254.457031 304.066406 258.882812 304.863281 C 263.648438 305.722656 268.605469 306.171875 273.71875 306.171875 Z M 289.699219 311.269531 C 284.46875 312.210938 279.125 312.703125 273.71875 312.703125 C 268.308594 312.703125 262.964844 312.210938 257.734375 311.269531 C 252.414062 310.308594 247.261719 308.878906 242.320312 307.027344 L 240.929688 306.507812 L 240.40625 305.113281 C 238.554688 300.175781 237.128906 295.023438 236.167969 289.703125 C 235.222656 284.46875 234.730469 279.125 234.730469 273.71875 C 234.730469 268.308594 235.222656 262.964844 236.167969 257.734375 C 237.128906 252.414062 238.554688 247.261719 240.40625 242.320312 L 240.929688 240.929688 L 242.320312 240.40625 C 247.261719 238.558594 252.414062 237.128906 257.734375 236.167969 C 262.964844 235.222656 268.308594 234.730469 273.71875 234.730469 C 279.125 234.730469 284.46875 235.222656 289.703125 236.167969 C 295.023438 237.128906 300.175781 238.558594 305.113281 240.40625 L 306.503906 240.929688 L 307.027344 242.320312 C 308.878906 247.261719 310.308594 252.414062 311.265625 257.734375 C 312.210938 262.964844 312.703125 268.308594 312.703125 273.71875 C 312.703125 279.125 312.210938 284.46875 311.265625 289.703125 C 310.308594 295.023438 308.878906 300.175781 307.027344 305.113281 L 306.503906 306.507812 L 305.113281 307.027344 C 300.175781 308.878906 295.019531 310.308594 289.699219 311.269531 Z M 289.699219 311.269531 " fill-opacity="1" fill-rule="nonzero"/></svg>