<svg xmlns="http://www.w3.org/2000/svg" xmlns:xlink="http://www.w3.org/1999/xlink" width="500" zoomAndPan="magnify" viewBox="0 0 375 374.999991" height="500" preserveAspectRatio="xMidYMid meet" version="1.0"><defs><g/></defs><rect x="-37.5" width="450" fill="#ffffff" y="-37.499999" height="449.999989" fill-opacity="1"/><rect x="-37.5" width="450" fill="#000000" y="-37.499999" height="449.999989" fill-opacity="1"/><g fill="#ffffff" fill-opacity="1"><g transform="translate(-11.376685, 280.368441)"><g><path d="M 147.210938 3.300781 C 194.632812 3.300781 235.867188 -22.679688 257.722656 -61.027344 L 235.042969 -73.8125 C 218.136719 -43.296875 185.148438 -23.09375 147.210938 -23.09375 C 91.542969 -23.09375 46.597656 -67.625 46.597656 -123.707031 C 46.597656 -179.789062 91.542969 -224.320312 147.210938 -224.320312 C 185.148438 -224.320312 218.136719 -204.117188 235.042969 -173.601562 L 257.722656 -186.386719 C 235.867188 -224.734375 194.632812 -250.710938 147.210938 -250.710938 C 77.109375 -250.710938 20.207031 -193.808594 20.207031 -123.707031 C 20.207031 -53.605469 77.109375 3.300781 147.210938 3.300781 Z M 147.210938 3.300781 "/></g></g></g><g fill="#ffffff" fill-opacity="1"><g transform="translate(386.366107, 94.623146)"><g><path d="M -147.210938 -3.300781 C -194.632812 -3.300781 -235.867188 22.679688 -257.722656 61.027344 L -235.042969 73.8125 C -218.136719 43.296875 -185.148438 23.09375 -147.210938 23.09375 C -91.542969 23.09375 -46.597656 67.625 -46.597656 123.707031 C -46.597656 179.789062 -91.542969 224.320312 -147.210938 224.320312 C -185.148438 224.320312 -218.136719 204.117188 -235.042969 173.601562 L -257.722656 186.386719 C -235.867188 224.734375 -194.632812 250.710938 -147.210938 250.710938 C -77.109375 250.710938 -20.207031 193.808594 -20.207031 123.707031 C -20.207031 53.605469 -77.109375 -3.300781 -147.210938 -3.300781 Z M -147.210938 -3.300781 "/></g></g></g></svg>