<svg xmlns="http://www.w3.org/2000/svg" xmlns:xlink="http://www.w3.org/1999/xlink" width="500" zoomAndPan="magnify" viewBox="0 0 375 374.999991" height="500" preserveAspectRatio="xMidYMid meet" version="1.0"><rect x="-37.5" width="450" fill="#ffffff" y="-37.499999" height="449.999989" fill-opacity="1"/><rect x="-37.5" width="450" fill="#000000" y="-37.499999" height="449.999989" fill-opacity="1"/><path fill="#ffffff" d="M 204.726562 74.402344 L 217.792969 61.335938 C 243.460938 35.667969 285.25 35.035156 311.0625 60.550781 C 331.664062 80.917969 335.953125 111.589844 323.917969 136.242188 C 317.996094 148.375 320.390625 162.921875 329.941406 172.464844 C 365.914062 136.492188 365.851562 77.929688 329.753906 42.035156 C 293.660156 6.140625 235.0625 6.855469 199.066406 42.847656 L 74.484375 167.4375 L 64.238281 157.195312 C 38.132812 131.085938 37.964844 88.421875 64.535156 62.78125 C 85.109375 42.925781 115.523438 39.132812 139.863281 51.402344 C 151.332031 57.183594 165.179688 55.152344 174.261719 46.070312 L 174.578125 45.753906 C 174.988281 45.34375 174.988281 44.667969 174.570312 44.253906 C 138.996094 9.484375 82.003906 9.347656 46.261719 43.855469 C 9.097656 79.730469 9.230469 139.394531 45.761719 175.929688 L 170.316406 300.484375 L 157.082031 313.714844 C 131.414062 339.382812 89.625 340.015625 63.8125 314.5 C 43.214844 294.132812 38.921875 263.460938 50.957031 238.816406 C 56.878906 226.683594 54.484375 212.136719 44.933594 202.59375 C 8.953125 238.546875 9.015625 297.117188 45.105469 333.007812 C 81.203125 368.90625 139.800781 368.1875 175.796875 332.195312 L 300.550781 207.441406 L 310.828125 217.71875 C 336.496094 243.386719 337.128906 285.175781 311.613281 310.988281 C 291.25 331.589844 260.578125 335.878906 235.921875 323.84375 C 223.789062 317.921875 209.242188 320.316406 199.699219 329.867188 C 235.671875 365.839844 294.238281 365.777344 330.128906 329.679688 C 366.027344 293.582031 365.308594 234.988281 329.316406 198.992188 Z M 188.910156 281.867188 L 93.085938 186.042969 L 186.121094 93.011719 L 281.945312 188.835938 Z M 188.910156 281.867188 " fill-opacity="1" fill-rule="nonzero"/></svg>